<?xml version="1.0" encoding="iso-8859-1"?>
<!-- Generator: Adobe Illustrator 19.0.0, SVG Export Plug-In . SVG Version: 6.00 Build 0)  -->
<svg version="1.1" id="Layer_1" xmlns="http://www.w3.org/2000/svg" xmlns:xlink="http://www.w3.org/1999/xlink" x="0px" y="0px"
	 viewBox="0 0 512 512" style="enable-background:new 0 0 512 512;" xml:space="preserve">
<path style="fill:#E0E0E2;" d="M116.896,0L71.283,26.508l-0.208,73.301l251.372,145.859L71.075,99.808v224.298l324.237,187.894
	l45.613-26.508V261.194l0,0v-73.3L116.896,0z"/>
<polyline style="fill:#C6C5CB;" points="330.898,435.605 330.898,435.605 330.898,474.811 395.312,440.324 388.372,442.312 "/>
<polygon style="fill:#ACABB1;" points="330.898,474.811 395.312,440.324 395.312,512 "/>
<polygon style="fill:#D8D8DA;" points="395.312,287.701 440.925,261.194 440.925,485.492 395.312,512 "/>
<polygon style="fill:#CD2A01;" points="116.896,0 71.283,26.508 71.075,99.808 395.312,287.701 440.925,261.194 440.925,187.894 "/>
<g style="enable-background:new    ;">
	<polygon style="fill:#AD2201;" points="395.312,214.402 440.925,187.894 440.925,261.194 395.312,287.701 	"/>
	<polygon style="fill:#FF3502;" points="71.283,26.508 116.897,0 440.925,187.894 395.312,214.402 	"/>
</g>
<g>
	<polyline style="fill:#FF3502;" points="184.429,185.216 150.78,165.789 150.67,204.454 184.319,223.882 184.429,185.216 	"/>
	<polyline style="fill:#FF3502;" points="227.174,209.895 193.525,190.468 193.415,229.133 227.065,248.561 227.174,209.895 	"/>
	<polyline style="fill:#FF3502;" points="269.914,234.57 236.264,215.143 236.154,253.809 269.804,273.236 269.914,234.57 	"/>
	<polyline style="fill:#FF3502;" points="312.659,259.249 279.01,239.823 278.9,278.488 312.549,297.916 312.659,259.249 	"/>
	<polyline style="fill:#FF3502;" points="355.398,283.925 321.749,264.498 321.639,303.163 355.288,322.591 355.398,283.925 	"/>
</g>
<g>
	<polyline style="fill:#C6C5CB;" points="141.557,207.522 107.907,188.094 107.798,226.76 141.447,246.187 141.557,207.522 	"/>
	<polyline style="fill:#C6C5CB;" points="184.296,232.197 150.647,212.769 150.537,251.436 184.186,270.863 184.296,232.197 	"/>
	<polyline style="fill:#C6C5CB;" points="227.042,256.876 193.392,237.449 193.282,276.115 226.932,295.543 227.042,256.876 	"/>
	<polyline style="fill:#C6C5CB;" points="269.781,281.552 236.131,262.124 236.021,300.79 269.671,320.217 269.781,281.552 	"/>
	<polyline style="fill:#C6C5CB;" points="312.526,306.231 278.877,286.803 278.767,325.47 312.416,344.897 312.526,306.231 	"/>
	<polyline style="fill:#C6C5CB;" points="355.265,330.906 321.616,311.479 321.506,350.145 355.155,369.572 355.265,330.906 	"/>
	<polyline style="fill:#C6C5CB;" points="141.424,254.511 107.774,235.083 107.665,273.749 141.314,293.176 141.424,254.511 	"/>
	<polyline style="fill:#C6C5CB;" points="184.162,279.186 150.512,259.758 150.404,298.425 184.053,317.851 184.162,279.186 	"/>
	<polyline style="fill:#C6C5CB;" points="226.909,303.865 193.259,284.437 193.149,323.104 226.799,342.531 226.909,303.865 	"/>
	<polyline style="fill:#C6C5CB;" points="269.648,328.541 235.998,309.113 235.888,347.779 269.538,367.206 269.648,328.541 	"/>
	<polyline style="fill:#C6C5CB;" points="312.393,353.22 278.744,333.792 278.634,372.458 312.283,391.885 312.393,353.22 	"/>
	<polyline style="fill:#C6C5CB;" points="355.132,377.895 321.483,358.468 321.373,397.134 355.022,416.561 355.132,377.895 	"/>
	<polyline style="fill:#C6C5CB;" points="141.29,301.5 107.64,282.072 107.532,320.73 141.18,340.158 141.29,301.5 	"/>
	<polyline style="fill:#C6C5CB;" points="184.029,326.175 150.38,306.747 150.27,345.405 183.919,364.833 184.029,326.175 	"/>
	<polyline style="fill:#C6C5CB;" points="226.774,350.854 193.126,331.427 193.016,370.084 226.666,389.512 226.774,350.854 	"/>
	<polyline style="fill:#C6C5CB;" points="269.514,375.53 235.864,356.102 235.755,394.76 269.404,414.188 269.514,375.53 	"/>
	<polyline style="fill:#C6C5CB;" points="312.26,400.209 278.611,380.781 278.501,419.439 312.15,438.867 312.26,400.209 	"/>
</g>
<g>
</g>
<g>
</g>
<g>
</g>
<g>
</g>
<g>
</g>
<g>
</g>
<g>
</g>
<g>
</g>
<g>
</g>
<g>
</g>
<g>
</g>
<g>
</g>
<g>
</g>
<g>
</g>
<g>
</g>
</svg>
